HIERARCHY
ROOT Hips
{
  OFFSET -32.5998 29.0326 120.673
  CHANNELS 6 Xposition Yposition Zposition Zrotation Xrotation Yrotation
  JOINT LeftUpLeg
  {
    OFFSET 8.64259 1.95398 -2.38835
    CHANNELS 3 Zrotation Xrotation Yrotation
    JOINT LeftLeg
    {
      OFFSET 43.7702 0 0
      CHANNELS 3 Zrotation Xrotation Yrotation
      JOINT LeftFoot
      {
        OFFSET 40.6238 0 0
        CHANNELS 3 Zrotation Xrotation Yrotation
        JOINT LeftToeBase
        {
          OFFSET 12.7242 0 0
          CHANNELS 3 Zrotation Xrotation Yrotation
          End Site
          {
            OFFSET 0 0 0
          }
        }
      }
    }
  }
  JOINT RightUpLeg
  {
    OFFSET -8.2249 1.95398 -2.59336
    CHANNELS 3 Zrotation Xrotation Yrotation
    JOINT RightLeg
    {
      OFFSET 43.5653 0 0
      CHANNELS 3 Zrotation Xrotation Yrotation
      JOINT RightFoot
      {
        OFFSET 40.6238 0 0
        CHANNELS 3 Zrotation Xrotation Yrotation
        JOINT RightToeBase
        {
          OFFSET 12.7242 0 0
          CHANNELS 3 Zrotation Xrotation Yrotation
          End Site
          {
            OFFSET 0 0 0
          }
        }
      }
    }
  }
  JOINT Spine
  {
    OFFSET 0.165834 0.87714 6.61349
    CHANNELS 3 Zrotation Xrotation Yrotation
    JOINT Spine1
    {
      OFFSET 7.38963 1.71661e-005 0
      CHANNELS 3 Zrotation Xrotation Yrotation
      JOINT Spine2
      {
        OFFSET 11.9445 1.14441e-005 0
        CHANNELS 3 Zrotation Xrotation Yrotation
        JOINT Spine3
        {
          OFFSET 14.7254 4.19617e-005 0
          CHANNELS 3 Zrotation Xrotation Yrotation
          JOINT Spine4
          {
            OFFSET 10.9679 0 0
            CHANNELS 3 Zrotation Xrotation Yrotation
            JOINT RightShoulder
            {
              OFFSET 2.46616 -1.6653 3.69651
              CHANNELS 3 Zrotation Xrotation Yrotation
              JOINT RightArm
              {
                OFFSET 13.0012 0 0
                CHANNELS 3 Zrotation Xrotation Yrotation
                JOINT RightForeArm
                {
                  OFFSET 28.7848 1.62311e-005 0
                  CHANNELS 3 Zrotation Xrotation Yrotation
                  JOINT RightHand
                  {
                    OFFSET 26.5688 1.62095e-005 0
                    CHANNELS 3 Zrotation Xrotation Yrotation
                    End Site
                    {
                      OFFSET 0 0 0
                    }
                  }
                }
              }
            }
            JOINT LeftShoulder
            {
              OFFSET 2.38034 -1.29275 -3.7523
              CHANNELS 3 Zrotation Xrotation Yrotation
              JOINT LeftArm
              {
                OFFSET 16.3182 6.07031e-005 0
                CHANNELS 3 Zrotation Xrotation Yrotation
                JOINT LeftForeArm
                {
                  OFFSET 27.0901 0 0
                  CHANNELS 3 Zrotation Xrotation Yrotation
                  JOINT LeftHand
                  {
                    OFFSET 24.5451 1.51738e-005 0
                    CHANNELS 3 Zrotation Xrotation Yrotation
                    End Site
                    {
                      OFFSET 0 0 0
                    }
                  }
                }
              }
            }
            JOINT Neck
            {
              OFFSET 5.0226 -0.0266342 0
              CHANNELS 3 Zrotation Xrotation Yrotation
              JOINT Head
              {
                OFFSET 6.69364 2.86102e-005 0
                CHANNELS 3 Zrotation Xrotation Yrotation
                End Site
                {
                  OFFSET 0 0 0
                }
              }
            }
          }
        }
      }
    }
  }
}
MOTION
Frames:	7
Frame Time:	0.0416667
28.7799 98.5031 -100.137 -178.2 -81.1285 178.903 -172.476 -4.88342 85.8086 -26.3887 12.5213 -3.15406 82.5722 13.1177 -4.33128 16.8466 -9.32767 7.61893 174.559 21.8572 87.4907 -32.1705 -7.21982 -0.543687 67.0149 -3.30943 -2.2301 16.9563 3.2581 6.01485 -0.456534 8.24493 -90.042 10.3883 -0.928588 0.00159556 -1.28235 -0.927608 0.0424633 -23.8201 -0.886137 -0.277571 -3.80747 -0.886147 -0.277584 90.8796 -31.5205 -104.477 35.9239 -15.9092 -6.2688 -12.8962 -14.4079 -22.9738 -9.91209 -0.127392 -3.87764 -87.4559 -42.4729 81.1398 -26.4422 2.73123 -23.1407 12.7688 -2.71365 -16.3327 0.133534 -0.148812 -7.02271 -12.9541 1.87074 -7.44245 -5.88767 2.02818 2.52816 
29.8926 99.3784 -103.771 -158.052 -79.7037 -162.126 -174.442 -4.83601 82.2041 -23.0538 7.46395 -3.22552 78.9197 10.7535 -2.68942 14.0818 -9.52568 5.33985 174.911 19.7428 85.7471 -44.5225 -9.02364 -2.73095 69.108 -4.76592 -1.62833 19.818 2.71383 4.13427 0.0786405 8.24993 -89.5556 10.3718 0.360157 0.849936 -1.29941 0.397216 0.833262 -23.8323 0.0880769 0.918879 -3.81965 0.0880727 0.918872 90.3095 -29.5635 -106.315 38.8095 -18.0494 -5.20254 -13.9594 -14.5296 -25.9819 -9.80771 -0.138552 -3.70116 -87.3139 -44.9671 81.8516 -23.6518 8.7357 -13.7509 9.54102 -8.39378 -12.3708 -1.04683 -0.114397 -6.33316 -14.6314 1.82167 -7.26718 -4.91085 1.9186 0.534015 
30.443 99.8908 -106.635 -152.935 -78.92 -157.272 -175.792 -4.01497 80.7318 -20.7787 5.12936 -2.4865 76.102 8.44374 -2.9206 12.6227 -9.93083 4.75294 174.301 13.7475 84.3541 -54.3017 -10.3445 -4.15858 69.3484 -5.21552 -3.66462 22.2319 0.999428 6.41222 0.456986 8.15814 -89.3272 10.5496 1.21935 1.22789 -1.12128 1.27221 1.17303 -23.6541 0.793996 1.53754 -3.64142 0.793995 1.53754 90.2346 -28.1795 -106.997 40.762 -19.2419 -3.65362 -14.7771 -13.6348 -28.9411 -11.4259 -0.226303 -2.98861 -87.2432 -47.7746 82.4772 -26.7301 7.28642 -2.77255 9.09384 -11.2218 -9.05119 -3.66136 -0.0642826 -6.70266 -14.7674 0.849111 -6.28457 -4.90138 0.948717 -1.94115 
30.8375 99.8614 -109.233 -148.297 -79.1668 -153.491 -176.416 -1.23655 79.3371 -21.2172 4.88517 -2.51365 74.7968 7.65057 -1.16344 10.8573 -10.49 4.1625 172.584 6.06154 81.8908 -58.2647 -13.6555 -5.01709 67.8708 -4.27313 -2.03224 22.4018 1.34064 5.06496 0.809953 7.92438 -89.038 11.0067 2.05808 1.71749 -0.663634 2.13166 1.62523 -23.197 1.4469 2.25649 -3.1844 1.44689 2.25649 90.0459 -27.4603 -107.675 43.347 -17.9061 -2.17792 -15.3025 -13.8681 -29.3484 -11.4132 -0.25074 -2.72479 -86.5994 -49.1869 83.6998 -29.6134 8.10551 9.0347 7.19581 -18.8978 -6.5322 0.739044 -0.0679896 -3.21939 -15.0011 -0.109373 -6.7715 -4.98875 -0.00428197 -3.40721 
30.5577 99.3832 -112.516 -144.177 -79.4995 -150.097 -175.41 2.93253 79.6465 -24.0403 5.10988 -3.85511 73.9543 6.63328 -1.94696 11.3501 -10.3059 4.28338 170.958 -2.43513 80.9265 -55.2718 -21.1746 -5.76564 67.1638 -4.37578 -2.3669 24.2398 0.140118 6.72653 1.0961 7.72634 -88.7303 11.3923 2.77345 2.24845 -0.277449 2.8697 2.12418 -22.8107 1.96979 2.97775 -2.79806 1.96979 2.97774 90.04 -27.455 -107.689 45.0427 -17.9068 -2.22199 -14.9354 -13.554 -28.7997 -11.4408 -0.167703 -3.61979 -86.0114 -49.41 84.6277 -32.7076 7.17344 17.4603 6.29314 -21.341 -7.03098 -0.412519 -0.0593269 -2.45154 -14.0912 -0.630372 -7.94269 -5.8603 -0.413886 -4.10325 
30.5856 98.8566 -117.314 -137.88 -78.4552 -144.721 -175.162 7.38125 79.1444 -26.3163 2.9399 -4.38448 72.0452 4.65233 -2.71241 9.76497 -11.085 4.18407 170.609 -10.7214 80.2056 -46.1814 -30.8445 -7.59625 67.166 -5.04478 -2.42236 27.9439 -1.44091 7.25728 1.39025 7.74069 -88.4616 11.3459 3.48361 2.71589 -0.32289 3.59972 2.5599 -22.8572 2.50688 3.63682 -2.84452 2.50689 3.63682 89.7988 -27.6085 -108.12 44.5353 -18.7365 -3.52565 -15.7075 -14.1773 -30.0589 -12.0475 -0.228178 -3.11777 -85.4911 -48.9534 85.3523 -35.1392 6.21101 19.3956 6.58137 -20.2434 -7.39095 -1.58668 -0.0737699 -1.91029 -13.2107 -0.967088 -8.89493 -4.81124 -0.711692 -3.72939 
30.6373 98.369 -124.293 -128.979 -76.9672 -136.112 -175.272 11.9927 79.2684 -24.9578 0.643781 -4.28032 67.2625 1.72811 -2.56801 8.38481 -11.5656 3.79501 171.306 -13.1466 80.9494 -37.3984 -30.2258 -8.10835 73.0483 -9.78811 -3.61878 34.304 -4.29089 10.1498 1.63511 7.88462 -88.477 11.0548 3.96101 2.64969 -0.612509 4.07374 2.47267 -23.1565 2.98207 3.71739 -3.14385 2.98206 3.71739 90.3267 -26.0899 -107.662 42.7749 -18.3562 -5.79905 -20.1302 -18.0277 -34.4267 -10.6735 -0.362738 -1.28055 -85.7449 -50.9357 85.2488 -33.6737 6.09274 15.2338 5.92721 -21.3237 -9.01761 -2.16021 -0.0879521 -2.98425 -11.4194 -1.07085 -5.74574 -4.35884 -0.800315 -5.37639 
